<?xml version="1.0" encoding="UTF-8" standalone="no"?>
<!-- Generator: Adobe Illustrator 16.0.4, SVG Export Plug-In . SVG Version: 6.00 Build 0)  -->

<svg
   version="1.1"
   id="Layer_1"
   x="0px"
   y="0px"
   width="574.133"
   height="215.61099"
   viewBox="0 0 574.13299 215.61098"
   enable-background="new 0 0 841.89 595.28"
   xml:space="preserve"
   sodipodi:docname="AIRBUS_Blue_margin.svg"
   inkscape:version="1.1.2 (b8e25be833, 2022-02-05)"
   xmlns:inkscape="http://www.inkscape.org/namespaces/inkscape"
   xmlns:sodipodi="http://sodipodi.sourceforge.net/DTD/sodipodi-0.dtd"
   xmlns="http://www.w3.org/2000/svg"
   xmlns:svg="http://www.w3.org/2000/svg"><defs
   id="defs158" /><sodipodi:namedview
   id="namedview156"
   pagecolor="#505050"
   bordercolor="#eeeeee"
   borderopacity="1"
   inkscape:pageshadow="0"
   inkscape:pageopacity="0"
   inkscape:pagecheckerboard="0"
   showgrid="false"
   fit-margin-top="70.863"
   fit-margin-bottom="70.863"
   fit-margin-left="87.581"
   fit-margin-right="87.581"
   lock-margins="false"
   inkscape:zoom="1.1338836"
   inkscape:cx="314.84713"
   inkscape:cy="214.30771"
   inkscape:window-width="1920"
   inkscape:window-height="1129"
   inkscape:window-x="-1928"
   inkscape:window-y="223"
   inkscape:window-maximized="1"
   inkscape:current-layer="layer3" />

<g
   inkscape:groupmode="layer"
   id="layer4"
   inkscape:label="Background"><rect
     style="opacity:1;fill:none;fill-opacity:1;stroke:none;stroke-width:3.74493;stroke-linecap:round;stroke-linejoin:round;stroke-opacity:1"
     id="rect1107"
     width="574.133"
     height="215.61681"
     x="4.2392628e-08"
     y="1.6558721e-10" /></g><g
   inkscape:groupmode="layer"
   id="layer3"
   inkscape:label="Logo"
   style="display:inline"
   sodipodi:insensitive="true"><g
     id="g153"
     transform="translate(-134.115,-187.846)">
	<g
   id="g151">
		<path
   fill="#00205b"
   d="m 405.595,283.949 c 0,-13.482 -8.845,-23.729 -27.073,-23.729 H 341.85 v 70.863 h 17.258 v -55.548 h 19.522 c 7.227,0 9.814,4.1 9.814,8.845 0,4.854 -2.696,8.845 -9.923,8.845 h -16.718 l 23.729,37.858 h 19.631 c 0,0 -16.18,-25.455 -16.071,-25.455 10.032,-2.372 16.503,-9.383 16.503,-21.679"
   id="path139" />
		<rect
   x="312.944"
   y="260.22"
   fill="#00205b"
   width="17.257999"
   height="70.863998"
   id="rect141" />
		<polygon
   fill="#00205b"
   points="265.054,282.547 265.271,282.547 289.431,331.083 309.277,331.083 273.144,260.22 257.829,260.22 221.696,331.083 241.11,331.083 246.963,319.219 276.056,319.219 268.83,304.334 254.307,304.334 "
   id="polygon143" />
		<path
   fill="#00205b"
   d="m 468.588,294.304 c 5.502,-3.021 8.414,-7.874 8.414,-14.993 0,-11.433 -8.521,-19.091 -22.866,-19.091 h -40.342 v 70.863 h 41.96 c 14.668,0 24.268,-7.874 24.268,-19.846 -10e-4,-8.304 -4.638,-14.56 -11.434,-16.933 m -37.534,-19.092 h 23.082 c 3.452,0 6.148,2.696 6.148,6.256 0,3.56 -2.696,6.256 -6.257,6.256 h -22.974 v -12.512 z m 23.512,40.986 h -23.513 v -14.453 h 23.513 c 4.207,0 7.443,3.021 7.443,7.119 10e-4,4.206 -3.236,7.334 -7.443,7.334"
   id="path145" />
		<path
   fill="#00205b"
   d="m 534.49,299.804 c 0,10.756 -4.962,16.718 -14.776,16.718 -9.707,0 -14.669,-5.962 -14.669,-16.718 V 260.22 h -17.688 v 38.29 c 0,21.896 11.541,34.084 32.357,34.084 20.816,0 32.465,-12.188 32.465,-34.084 V 260.22 H 534.49 Z"
   id="path147" />
		<path
   fill="#00205b"
   d="m 598.234,288.371 c -16.383,-3.989 -19.953,-4.37 -19.953,-9.061 0,-3.629 4.098,-5.393 11.001,-5.393 9.168,0 18.931,2.3 24.484,5.717 l 5.501,-14.453 c -7.118,-3.775 -17.581,-6.472 -29.769,-6.472 -18.229,0 -28.476,9.061 -28.476,21.248 0,13.114 7.654,18.442 25.239,22.219 13.69,3.018 16.609,4.901 16.609,8.736 0,4.166 -3.774,6.041 -11.216,6.041 -10.786,0 -20.548,-2.62 -28.367,-6.903 l -5.285,15.1 c 8.521,4.53 21.248,7.443 34.083,7.443 17.905,0 28.582,-8.306 28.582,-22.22 0.002,-11.163 -7.22,-18.334 -22.433,-22.002"
   id="path149" />
	</g>
</g></g></svg>
